<?xml version="1.0" encoding="UTF-8"?>
<svg id="Capa_2" data-name="Capa 2" xmlns="http://www.w3.org/2000/svg" viewBox="0 0 348.8 347.19">
  <defs>
    <style>
      .cls-1 {
        fill: #ff93ee;
      }
    </style>
  </defs>
  <g id="Capa_1-2" data-name="Capa 1">
    <g>
      <path class="cls-1" d="m62.17,224.2c2.31-16,9.89-28.71,21.99-38.78-4.36-7.73-7.03-15.76-6.96-24.61.13-16.67,11.59-33.62,27.07-39.92,17.75-7.22,33.96-4.49,48.15,8.17,15.41,13.76,18.86,37.13,8.6,54.86-.76,1.32-.55,1.96.53,2.91,10.45,9.24,17.51,20.5,19.88,34.4.4,2.34,1.23,3.1,3.66,3.02,8.4-.26,16.75.14,24.76,3.18,20.78,7.88,33.87,26.45,34.12,48.87.18,15.74.06,31.47.03,47.21,0,3.23.18,6.51-.34,9.67-1.3,7.95-8.06,13.5-16.48,13.94-7.72.4-15.09-4.72-17.11-12.25-.67-2.5-.74-5.23-.74-7.85.02-16.47.27-32.94.17-49.41-.07-11.28-7.57-18.57-18.87-18.58-43.33-.06-86.67-.03-130-.03-2.21,0-4.42.1-6.62-.04-11.85-.75-19.34,8.74-19.21,19.09.21,16.91.07,33.83.04,50.74,0,1.53-.16,3.09-.47,4.59-1.64,7.78-8.85,13.7-16.72,13.81-7.89.11-15.06-5.4-16.97-13.17-.42-1.69-.6-3.49-.6-5.24-.04-17.35-.14-34.71.02-52.06.22-24.54,15.98-44.89,39.55-50.83,5-1.26,10.33-1.23,15.51-1.66,2.25-.19,4.53-.03,7.02-.03Zm35.46-.18h48.33c-2.32-9.23-14.37-17.63-24.65-17.24-10.9.42-21.08,7.43-23.68,17.24Zm14.4-61.9c.04,5.69,4.45,9.98,10.17,9.87,5.48-.1,9.77-4.44,9.76-9.86,0-5.64-4.29-9.97-9.84-9.97-5.77,0-10.14,4.31-10.1,9.96Z"/>
      <path class="cls-1" d="m174.36,93.79c0-13.82,0-27.65,0-41.47,0-25.43,18.63-47.49,43.72-51.71,2.31-.39,4.68-.57,7.02-.58,23.98-.04,47.96-.03,71.95-.02,24.22.01,45.73,17.64,50.37,41.39.7,3.59,1.14,7.28,1.18,10.93.14,11.54.39,23.1-.04,34.63-.72,19.32-8.94,34.66-25.82,44.68-8.28,4.91-17.4,7.34-27.12,7.33-19.57-.04-39.14-.06-58.71.03-2.05,0-4.23.53-6.11,1.37-10.79,4.82-21.46,9.92-32.28,14.68-8.32,3.67-17.42.91-21.57-6.83-1.63-3.03-2.44-6.84-2.5-10.31-.27-14.7-.11-29.41-.11-44.12Zm34.84,18.24c3.53-1.58,6.6-2.79,9.51-4.3,4.88-2.54,9.99-3.54,15.5-3.5,20.53.14,41.06.15,61.58.03,10.86-.07,17.93-7.19,18.06-18.04.13-11.1.03-22.21-.01-33.32-.03-10.07-7.54-18.29-18.51-18.17-22.51.25-45.03.24-67.55-.02-9.21-.11-19.03,6.45-18.78,18.8.35,17.5.16,35.01.21,52.51,0,1.83,0,3.65,0,6.02Z"/>
      <path class="cls-1" d="m261.54,51.2c5.89,0,11.77-.07,17.66.02,9.92.14,17.54,8.29,17.03,18.1-.47,8.93-8.06,16.47-17.22,16.61-11.7.19-23.4.19-35.1-.01-8.61-.15-15.18-5.74-16.88-13.79-1.6-7.57,2.12-15.7,9.04-18.84,2.6-1.18,5.61-1.84,8.48-2,5.65-.3,11.33-.09,16.99-.09Z"/>
    </g>
  </g>
</svg>