<?xml version="1.0" encoding="UTF-8"?>
<svg id="Capa_2" data-name="Capa 2" xmlns="http://www.w3.org/2000/svg" viewBox="0 0 348.64 348.85">
  <defs>
    <style>
      .cls-1 {
        fill: #ff93ee;
      }
    </style>
  </defs>
  <g id="Capa_1-2" data-name="Capa 1">
    <g>
      <path class="cls-1" d="m181.35,248.84c-1.47,2.94-2.74,5.44-3.98,7.95-7.56,15.25-15.07,30.52-22.68,45.75-6.05,12.1-12.22,24.15-18.29,36.23-2.55,5.08-6.62,8.22-12.17,9.11-11.83,1.89-18.22-4.35-19.11-15.25-.3-3.64.59-7.04,2.21-10.29,11.66-23.33,23.31-46.68,34.98-70.01,1.33-2.66,2.73-5.29,4.23-8.18-.75-.09-1.2-.19-1.65-.19-42.08.04-84.16.09-126.25.09-2.25,0-4.56-.2-6.72-.78C4.45,241.28,0,234.97,0,226.73c-.01-9.95,5.99-16.57,15.9-17.43,1.28-.11,1.62-.54,1.61-1.79-.05-18.89-.05-37.78-.05-56.68,0-37.97.03-75.94.08-113.9,0-1.48-.21-2.08-1.92-2.21-7.5-.59-12.81-4.77-14.76-11.3-2.21-7.41-.1-15.54,5.14-19.66C8.57,1.74,11.51.55,14.75.24,16.76.05,18.79,0,20.82,0,123.75,0,226.69-.01,329.63.05c2.83,0,5.81.35,8.48,1.25,7.51,2.55,10.92,9.34,10.47,17.36-.54,9.57-5.8,14.84-15.66,16.05-1.56.19-1.82.73-1.82,2.16.04,56.86.04,113.72.03,170.58,0,1.1,0,1.8,1.46,1.88,13.15.74,17.49,11.72,15.67,21.23-1.56,8.14-7.35,12.98-15.69,13.39-3.31.16-6.62.1-9.93.11-33.06.02-66.13.03-99.19.05-1.1,0-2.19,0-3.57,0,.27.72.47,1.33.73,1.91,8.84,19.39,17.69,38.76,26.52,58.15,3.32,7.3,6.65,14.6,9.87,21.94,3.75,8.52,1.09,15.82-7.02,20.38-4.51,2.54-9.33,2.77-14.09,1.9-4.35-.79-7.09-4.08-9.03-7.99-5.56-11.18-11.17-22.34-16.75-33.51-7.83-15.66-15.66-31.32-23.46-46.99-1.74-3.5-3.37-7.06-5.26-11.04Zm-129.16-39.66c2.55,0,4.87,0,7.18,0,77.47,0,154.93,0,232.4,0,4.61,0,4.64,0,4.64-4.51,0-56.11,0-112.22.02-168.34,0-1.15-.28-1.49-1.42-1.48-3.13.03-6.25-.09-9.38-.09-72.99,0-145.98,0-218.97,0-4.05,0-8.1.03-12.14-.02-2.33-.03-2.34-.08-2.34,2.27,0,53.97,0,107.94,0,161.91,0,3.31,0,6.61,0,10.25Z"/>
      <path class="cls-1" d="m174.34,122.03c0,16.92.02,33.85-.02,50.77,0,3.51-.34,7.02-2.02,10.18-2.89,5.42-7.52,8.48-13.61,8.62-10.05.24-20.11.11-30.17.13-13.43.02-26.86,0-40.29.04-3.22,0-6.38-.3-9.31-1.72-6.4-3.12-9.09-8.59-9.1-15.39-.07-35.44-.07-70.89,0-106.33.01-8.24,6.36-14.96,14.58-15.8,1.64-.17,3.3-.26,4.96-.26,22.02-.02,44.03-.04,66.05.01,2.25,0,4.56.2,6.73.76,6.94,1.78,11.11,6.81,11.85,14.01.21,2.07.33,4.16.34,6.24.03,16.25.01,32.5.01,48.75Zm-34.99-34.88c-.89,0-1.55,0-2.21,0-10.11,0-20.23.03-30.34-.05-1.77-.01-2.25.5-2.24,2.26.07,21.02.07,42.04.08,63.06,0,1.4,0,2.8,0,4.3h34.71v-69.58Z"/>
      <path class="cls-1" d="m235.36,87.15c-8.89,0-17.79.02-26.68,0-4.24-.01-8.11-1.19-11.35-4.03-4.41-3.88-5.84-8.97-5.48-14.59.67-10.29,7.19-16.18,18.04-16.24,15.33-.08,30.67-.05,46,0,3.24.01,6.55-.08,9.7.54,8.8,1.73,14.29,9.72,13.14,18.65-1.33,10.31-7.4,15.67-17.79,15.68-4.29,0-8.59-.02-12.88-.03-4.23,0-8.46,0-12.7,0v.04Z"/>
      <path class="cls-1" d="m235.48,156.7c-9.56,0-19.13.23-28.68-.07-7.74-.24-13.97-6.62-14.8-14.34-.38-3.59-.22-7.11,1.26-10.45,2.84-6.39,8.01-9.61,14.79-9.68,18.14-.18,36.29-.26,54.43,0,11.62.17,17.24,9.3,16.15,19.31-.94,8.68-5.03,13.14-13.03,14.95-1.89.43-3.89.43-5.84.44-8.09.05-16.18.02-24.27.02,0-.06,0-.12,0-.18Z"/>
    </g>
  </g>
</svg>