<?xml version="1.0" encoding="UTF-8"?>
<svg id="Capa_2" data-name="Capa 2" xmlns="http://www.w3.org/2000/svg" viewBox="0 0 294.65 347.2">
  <defs>
    <style>
      .cls-1 {
        fill: #ff93ee;
      }
    </style>
  </defs>
  <g id="Capa_1-2" data-name="Capa 1">
    <g>
      <path class="cls-1" d="m147.12,347.15c-40.06,0-80.12-.06-120.19.05-7.65.02-14.24-2.01-19.62-7.57-3.9-4.04-5.43-9.06-6.56-14.42-2.13-10.09.45-18.88,6.17-27.2,8.62-12.54,16.93-25.29,25.45-37.89,3.11-4.6,4.51-9.52,4.63-15.11.33-15.62,1-31.24,1.58-46.86.56-15.13,1.17-30.26,1.77-45.39.17-4.15.07-8.34.7-12.42,1.78-11.45,10.69-19.5,22.29-19.84,11.15-.33,22.31-.31,33.46-.06,10.59.24,18.46,8.74,18.18,19.06-.27,10.03-8.36,17.73-18.86,17.86-4.56.06-9.12-.06-13.68.02-4.01.07-5.3,1.56-5.46,5.54-.56,14.48-1.22,28.95-1.78,43.43-.37,9.68-.68,19.36-.93,29.05-.09,3.53,1.17,4.82,4.69,5.16,1.54.15,3.09.17,4.63.17,42.83,0,85.66,0,128.49-.02,1.22,0,2.44-.04,3.66-.15,3.55-.31,4.89-1.78,4.75-5.38-.87-21.96-1.78-43.92-2.66-65.89-.08-1.95-.05-3.91-.15-5.86-.22-4.16-1.95-5.92-6.09-6.01-4.4-.1-8.79,0-13.19-.07-10.19-.14-18.01-7.43-18.43-17.1-.45-10.48,6.55-19.21,16.83-19.68,11.62-.53,23.3-.62,34.91.03,12.89.72,21.52,10.04,22.15,22.95.75,15.29,1.26,30.58,1.85,45.88.74,19.2,1.47,38.4,2.17,57.6.17,4.61,1.64,8.72,4.21,12.53,8.44,12.56,16.76,25.21,25.24,37.73,3.76,5.55,6.88,11.37,7.24,18.12.68,12.7-3.27,23.74-14,29.19-3.89,1.97-8,2.55-12.29,2.54-32-.02-64-.01-96-.01-8.39,0-16.77,0-25.16,0h0Zm.27-36.97s0,.04,0,.07c32.56,0,65.13.02,97.69-.05,1.6,0,3.2-.73,4.81-1.12-.55-1.47-.87-3.1-1.7-4.4-4.32-6.7-8.98-13.19-13.1-20-3.14-5.18-7.31-7.14-13.31-7.12-49.66.14-99.32.16-148.98-.02-6.13-.02-10.12,2.23-13.22,7.29-4.16,6.79-8.68,13.37-12.95,20.09-.78,1.23-1.16,2.72-1.72,4.1,1.52.39,3.03,1.12,4.55,1.12,32.65.07,65.29.05,97.94.05Z"/>
      <path class="cls-1" d="m129.17,36.01c0-6.67-.47-13.38.11-20C130.09,6.79,138.51-.13,147.81,0c8.93.13,17.09,7.35,17.55,16.5.53,10.72.25,21.48.35,32.22.02,2.19-.02,4.41.27,6.58.58,4.43,3.89,5.79,7.55,3.15,1.32-.95,2.48-2.1,3.72-3.16,7.59-6.5,17.08-5.97,24.53,1.37,7.05,6.95,7.75,16.81,1.43,24.18-3.28,3.82-7,7.27-10.58,10.82-10.62,10.56-21.18,21.19-31.99,31.56-2.5,2.4-5.68,4.52-8.94,5.62-5.53,1.88-10.82.42-15.13-3.62-4.39-4.12-8.62-8.41-12.93-12.63-10.12-9.91-20.25-19.81-30.36-29.73-5.19-5.09-7.2-11.16-5.1-18.24,2.11-7.11,6.83-11.74,14.07-13.5,5.34-1.3,10.13.22,14.4,3.54,1.73,1.35,3.34,2.88,5.16,4.09,3.27,2.15,5.87,1.07,6.67-2.77.36-1.73.37-3.56.39-5.34.05-4.88.02-9.77.02-14.65.1,0,.2,0,.29,0Z"/>
    </g>
  </g>
</svg>