<?xml version="1.0" encoding="UTF-8"?>
<svg id="Capa_2" data-name="Capa 2" xmlns="http://www.w3.org/2000/svg" viewBox="0 0 346.73 347.2">
  <defs>
    <style>
      .cls-1 {
        fill: #ff93ee;
      }
    </style>
  </defs>
  <g id="Capa_1-2" data-name="Capa 1">
    <path class="cls-1" d="m155.73,156.03v-51.91c-.99,0-1.85,0-2.71,0-33.09,0-66.18-.03-99.27,0-3.74,0-7.3-.54-10.52-2.5-5.72-3.48-8.62-8.67-8.63-15.32-.06-22.78-.03-45.55-.02-68.33,0-9.96,7.54-17.64,17.54-17.94,2.19-.07,4.39-.01,6.59-.01,78.04,0,156.08,0,234.12,0,10.53,0,17.45,5.51,19.15,15.28.19,1.07.21,2.19.21,3.28.01,22.41.02,44.82,0,67.23,0,10.79-7.35,18.26-18.17,18.28-31.11.04-62.23-.01-93.34-.03-3.2,0-6.4,0-9.71,0v52.02c2.23,0,4.33,0,6.43,0,31.11,0,62.23,0,93.34-.03,4.23,0,8.34.43,11.98,2.85,4.68,3.1,7.42,7.4,7.77,13.06.16,2.55.14,5.12.14,7.68-.02,20.14-.01,40.28-.17,60.42-.02,2.52.67,3.71,3.05,4.67,16.83,6.81,27.3,19.48,31.67,36.78,6.79,26.86-9.4,58.85-42.32,64.75-30.39,5.45-58.18-15.33-62.32-45.59-3.46-25.33,12.8-48.61,32.97-56.3,2.13-.81,2.62-1.91,2.61-4.02-.09-15.53-.11-31.05,0-46.58.02-2.25-.58-2.87-2.75-2.86-26.06.07-52.12.07-78.19.09-1.31,0-2.63,0-4.19,0-.04.81-.11,1.51-.11,2.21-.07,16.18-.11,32.37-.23,48.55-.01,1.65.89,2.11,2.13,2.57,9.84,3.64,17.65,9.87,23.73,18.41,19.64,27.55,8.95,64.63-18.47,78.36-34.55,17.3-71.36-4.18-77.29-38.25-4.37-25.09,9.99-50.01,33.94-58.91,1.47-.55,1.16-1.48,1.16-2.42,0-10.25-.05-20.51-.06-30.76,0-6.01.02-12.01.03-18.02,0-.5-.06-.99-.12-1.79-1.77,0-3.44,0-5.1,0-25.84,0-51.69.02-77.53-.04-1.94,0-2.47.56-2.47,2.49.06,15.89.05,31.78-.03,47.68,0,1.74.53,2.44,2.17,3.13,19.82,8.35,31.32,23.37,33.35,44.66,2.03,21.31-6.1,38.74-24.42,50.03-34.37,21.17-76.16-.31-81.18-38.22-2.19-16.56,2.69-31.21,14.31-43.49,5.7-6.02,12.38-10.41,20.07-13.41.59-.23,1.23-1.24,1.23-1.88.01-21.89-.1-43.79-.03-65.68.01-3.16.29-6.55,1.46-9.43,3.12-7.69,9.49-10.7,17.51-10.7,16.62,0,33.24.01,49.85,0,16.18,0,32.36-.02,48.54-.03.71,0,1.43,0,2.28,0Zm121.68-121.36c-1.32,0-2.27,0-3.21,0-61.12,0-122.25,0-183.37,0-6.44,0-12.88.04-19.33-.03-1.56-.02-2.2.34-2.19,2.05.07,10.25.07,20.5-.02,30.75-.01,1.73.57,2.04,2.15,2.04,67.93-.04,135.86-.05,203.79,0,1.85,0,2.19-.62,2.18-2.26-.05-9.74-.02-19.48-.02-29.22,0-1.01,0-2.01,0-3.34Zm-122.68,258.37c-.39,10.35,7.7,18.8,18.39,19.21,10.08.39,18.5-7.67,18.96-18.16.45-10.28-7.59-18.88-18.04-19.29-10.45-.41-18.91,7.58-19.32,18.24Zm157.39.8c.2-10.16-8.23-18.79-18.51-18.96-10.18-.16-18.89,8.14-19.03,18.13-.14,10.53,8.31,19.11,18.96,19.24,9.87.13,18.38-8.31,18.58-18.42Zm-240.1-.12c-.14-10.76-8.38-18.9-19.02-18.76-10.15.13-18.49,8.71-18.34,18.86.15,10.28,8.62,18.51,19.01,18.47,9.92-.04,18.49-8.7,18.36-18.57Z"/>
  </g>
</svg>