<?xml version="1.0" encoding="UTF-8"?>
<svg id="Capa_2" data-name="Capa 2" xmlns="http://www.w3.org/2000/svg" viewBox="0 0 409.58 347.31">
  <defs>
    <style>
      .cls-1 {
        fill: #ff93ee;
      }
    </style>
  </defs>
  <g id="Capa_1-2" data-name="Capa 1">
    <g>
      <path class="cls-1" d="m219.31,210.1c0,5.4.1,10.9,0,16.3-.1,2.14.71,3.26,2.55,4.28,11.2,6.11,22.41,12.22,33.61,18.44,8.56,4.79,11,14.77,5.5,22.1-4.69,6.21-12.43,7.74-19.66,3.77-10.7-5.81-21.39-11.71-31.88-17.83-3.16-1.83-5.6-2.14-8.86-.2-10.29,6.11-20.88,11.71-31.37,17.62-4.48,2.55-9.17,3.67-14.16,1.43-5.3-2.34-8.66-6.32-9.07-12.22-.41-5.81,2.04-10.49,6.93-13.55,3.97-2.55,8.15-4.89,12.33-7.23,7.54-4.28,15.08-8.45,22.61-12.53,1.73-.92,2.44-1.94,2.44-3.97-.1-11.2-.1-22.51,0-33.72,0-5.7,2.95-9.88,7.95-12.43,4.99-2.55,10.08-2.34,14.77.81,4.18,2.75,6.21,6.93,6.42,11.82.1,5.7-.1,11.41-.1,17.11Z"/>
      <path class="cls-1" d="m271.77,117.31c-2.65-15.69-10.59-28.32-22.41-38.71-1.22-1.02-1.43-1.83-.61-3.26,11.51-19.96,7.64-46.24-9.68-61.73-15.99-14.26-34.23-17.32-54.19-9.17-17.42,7.13-30.35,26.18-30.46,44.92-.1,9.98,2.95,18.95,7.84,27.71-13.65,11.31-22.1,25.67-24.75,43.6v33.1c0,3.36,2.75,6.11,6.11,6.11h122.13c3.36,0,6.11-2.75,6.11-6.11v-35.65c0-.31,0-.51-.1-.81Zm-66.72-77.72c6.21,0,11.1,4.89,11.1,11.2s-4.79,11-11,11.1c-6.42.1-11.41-4.69-11.41-11.1-.1-6.42,4.89-11.2,11.31-11.2Zm-27.5,80.88c2.95-11,14.36-18.95,26.69-19.35,11.61-.41,25.16,9.07,27.71,19.35h-54.39Z"/>
      <path class="cls-1" d="m134.25,304.73c-2.65-15.69-10.59-28.32-22.41-38.71-1.22-1.02-1.43-1.83-.61-3.26,11.51-19.96,7.64-46.24-9.68-61.73-15.99-14.26-34.23-17.32-54.19-9.17-17.42,7.13-30.35,26.18-30.46,44.92-.1,9.98,2.95,18.95,7.84,27.71-13.65,11.31-22.1,25.67-24.75,43.6v33.1c0,3.36,2.75,6.11,6.11,6.11h122.13c3.36,0,6.11-2.75,6.11-6.11v-35.65c0-.31-.1-.51-.1-.81Zm-66.72-77.72c6.21,0,11.1,4.89,11.1,11.2s-4.79,11-11,11.1c-6.42.1-11.41-4.69-11.41-11.1-.1-6.32,4.79-11.2,11.31-11.2Zm-27.6,80.88c2.95-11,14.36-18.95,26.69-19.35,11.61-.41,25.16,9.07,27.71,19.35h-54.39Z"/>
      <path class="cls-1" d="m409.48,304.73c-2.65-15.69-10.59-28.32-22.41-38.71-1.22-1.02-1.43-1.83-.61-3.26,11.51-19.96,7.64-46.24-9.68-61.73-15.99-14.26-34.23-17.32-54.19-9.17-17.42,7.13-30.35,26.18-30.46,44.92-.1,9.98,2.95,18.95,7.84,27.71-13.65,11.31-22.1,25.67-24.75,43.6v33.1c0,3.36,2.75,6.11,6.11,6.11h122.13c3.36,0,6.11-2.75,6.11-6.11v-35.65c0-.31-.1-.51-.1-.81Zm-66.72-77.72c6.21,0,11.1,4.89,11.1,11.2s-4.79,11-11,11.1c-6.42.1-11.41-4.69-11.41-11.1-.1-6.32,4.79-11.2,11.31-11.2Zm-27.6,80.88c2.95-11,14.36-18.95,26.69-19.35,11.61-.41,25.16,9.07,27.71,19.35h-54.39Z"/>
    </g>
  </g>
</svg>