<?xml version="1.0" encoding="UTF-8"?>
<svg id="Capa_2" data-name="Capa 2" xmlns="http://www.w3.org/2000/svg" viewBox="0 0 39.84 39.87">
  <defs>
    <style>
      .cls-1 {
        fill: #b083f9;
      }
    </style>
  </defs>
  <g id="Capa_1-2" data-name="Capa 1">
    <g>
      <path class="cls-1" d="m25.15,12.67c.55-.55,1.45-.55,2.01,0s.55,1.45,0,2.01l-1,1,4.3,4.3,1-1c2.39-2.96,2.21-7.32-.54-10.07-2.75-2.75-7.11-2.93-10.07-.54l-1,1,4.3,4.3.96-.96s.03-.04.04-.05Z"/>
      <path class="cls-1" d="m31.86,5.96c.55-.55,1.45-.55,2.01,0s.55,1.45,0,2.01l-1,1,4.3,4.3,1-1c2.39-2.96,2.21-7.32-.54-10.07-2.75-2.75-7.11-2.93-10.07-.54l-1,1,4.3,4.3.96-.96s.03-.04.04-.05Z"/>
      <path class="cls-1" d="m14.55,27.3c-.55.55-1.45.55-2.01,0-.55-.55-.55-1.45,0-2.01l1-1-4.3-4.3-1,1c-2.39,2.96-2.21,7.32.54,10.07,2.75,2.75,7.11,2.93,10.07.54l1-1-4.3-4.3-.96.96s-.03.04-.04.05Z"/>
      <path class="cls-1" d="m7.98,33.87c-.55.55-1.45.55-2.01,0s-.55-1.45,0-2.01l1-1-4.3-4.3-1,1c-2.39,2.96-2.21,7.32.54,10.07,2.75,2.75,7.11,2.93,10.07.54l1-1-4.3-4.3-.96.96s-.03.04-.04.05Z"/>
      <path class="cls-1" d="m27.16,25.29c.55.55.55,1.45,0,2.01s-1.45.55-2.01,0l-1-1-4.3,4.3,1,1c2.96,2.39,7.32,2.21,10.07-.54,2.75-2.75,2.93-7.11.54-10.07l-1-1-4.3,4.3.96.96s.04.03.05.04Z"/>
      <path class="cls-1" d="m33.76,31.89c.55.55.55,1.45,0,2.01s-1.45.55-2.01,0l-1-1-4.3,4.3,1,1c2.96,2.39,7.32,2.21,10.07-.54s2.93-7.11.54-10.07l-1-1-4.3,4.3.96.96s.04.03.05.04Z"/>
      <path class="cls-1" d="m12.53,14.69c-.55-.55-.55-1.45,0-2.01s1.45-.55,2.01,0l1,1,4.3-4.3-1-1c-2.96-2.39-7.32-2.21-10.07.54s-2.93,7.11-.54,10.07l1,1,4.3-4.3-.96-.96s-.04-.03-.05-.04Z"/>
      <path class="cls-1" d="m6.04,8.2c-.55-.55-.55-1.45,0-2.01s1.45-.55,2.01,0l1,1,4.3-4.3-1-1C9.39-.5,5.03-.33,2.28,2.42-.47,5.17-.65,9.53,1.75,12.49l1,1,4.3-4.3-.96-.96s-.04-.03-.05-.04Z"/>
    </g>
  </g>
</svg>