<?xml version="1.0" encoding="UTF-8"?>
<svg id="Capa_2" data-name="Capa 2" xmlns="http://www.w3.org/2000/svg" viewBox="0 0 40.23 39.91">
  <defs>
    <style>
      .cls-1 {
        fill: #00a88c;
        fill-rule: evenodd;
      }
    </style>
  </defs>
  <g id="Capa_1-2" data-name="Capa 1">
    <g>
      <path class="cls-1" d="m26.76,19.99l-6.77-6.77,3.39-3.39c1.87-1.87,4.91-1.87,6.77,0,1.87,1.87,1.87,4.91,0,6.77l-3.39,3.39Z"/>
      <path class="cls-1" d="m19.99,13.21l-6.77,6.77-3.39-3.39c-1.87-1.87-1.87-4.91,0-6.77,1.87-1.87,4.91-1.87,6.77,0l3.39,3.39Z"/>
      <path class="cls-1" d="m11.56,4.79l-6.77,6.77-3.39-3.39c-1.87-1.87-1.87-4.91,0-6.77s4.91-1.87,6.77,0l3.39,3.39Z"/>
      <path class="cls-1" d="m13.21,19.99l6.77,6.77-3.39,3.39c-1.87,1.87-4.91,1.87-6.77,0s-1.87-4.91,0-6.77l3.39-3.39Z"/>
      <path class="cls-1" d="m4.86,28.35l6.77,6.77-3.39,3.39c-1.87,1.87-4.91,1.87-6.77,0-1.87-1.87-1.87-4.91,0-6.77l3.39-3.39Z"/>
      <path class="cls-1" d="m28.66,35.12l6.77-6.77,3.39,3.39c1.87,1.87,1.87,4.91,0,6.77-1.87,1.87-4.91,1.87-6.77,0l-3.39-3.39Z"/>
      <path class="cls-1" d="m35.37,11.56l-6.77-6.77,3.39-3.39c1.87-1.87,4.91-1.87,6.77,0s1.87,4.91,0,6.77l-3.39,3.39Z"/>
      <path class="cls-1" d="m19.99,26.76l6.77-6.77,3.39,3.39c1.87,1.87,1.87,4.91,0,6.77-1.87,1.87-4.91,1.87-6.77,0l-3.39-3.39Z"/>
    </g>
  </g>
</svg>