<?xml version="1.0" encoding="UTF-8"?>
<svg id="Capa_2" data-name="Capa 2" xmlns="http://www.w3.org/2000/svg" viewBox="0 0 291.2 347.2">
  <defs>
    <style>
      .cls-1 {
        fill: #ff93ee;
      }
    </style>
  </defs>
  <g id="Capa_1-2" data-name="Capa 1">
    <g>
      <path class="cls-1" d="m0,61.6v224c0,16.34,6.49,32,18.04,43.56,11.55,11.55,27.22,18.04,43.56,18.04h229.6V0H61.6C45.27,0,29.6,6.49,18.04,18.04,6.49,29.6,0,45.27,0,61.6h0Zm257.6,252H61.6c-10,0-19.25-5.34-24.25-14-5-8.66-5-19.34,0-28,5-8.66,14.25-14,24.25-14h196v56Zm0-89.6H61.6c-9.74,0-19.34,2.32-28,6.78V61.59c0-7.43,2.95-14.55,8.2-19.8,5.25-5.25,12.38-8.2,19.8-8.2h196v190.4Z"/>
      <path class="cls-1" d="m173.6,162.4l17.81-32.59,32.59-17.81-32.59-17.81-17.81-32.59-17.81,32.59-32.59,17.8,32.59,17.81,17.81,32.59Z"/>
      <path class="cls-1" d="m100.8,196l9.91-18.09,18.09-9.91-18.09-9.91-9.91-18.09-9.91,18.09-18.09,9.91,18.09,9.91,9.91,18.09Z"/>
    </g>
  </g>
</svg>