<?xml version="1.0" encoding="UTF-8"?>
<svg id="Capa_2" data-name="Capa 2" xmlns="http://www.w3.org/2000/svg" viewBox="0 0 471.31 347.31">
  <defs>
    <style>
      .cls-1 {
        fill: #ff93ee;
      }
    </style>
  </defs>
  <g id="Capa_1-2" data-name="Capa 1">
    <g>
      <path class="cls-1" d="m471.3,172.98c.1,26.9-5,52.7-13.4,77.9-7.4,22.1-18.1,42.5-32.2,61-7.1,9.3-14.7,18.4-22.9,26.8-15.2,15.4-38.7,7.3-43.7-11.4-2.6-9.5,0-18.1,6.7-25.2,9.1-9.5,17.9-19.3,24.7-30.5,14.2-23.3,23.8-48.4,27.1-75.6,3.4-27.6,1.4-54.8-7.9-81.1-9-25.3-21.6-48.6-40.9-67.9-4.8-4.8-8.6-10.1-9.8-17-2.5-14.7,8.5-28.8,23.3-29.9,8.6-.6,15.8,2.2,21.7,8.4,31,32.7,52.3,70.6,61.7,114.9,3.6,16.5,5.8,33,5.6,49.6Z"/>
      <path class="cls-1" d="m1,172.98c.4-41.4,10.3-80.4,31.1-116.3,10-17.2,21.8-33.2,35.7-47.6C75.6.98,84.9-1.92,95.6,1.58c10.5,3.4,16.3,11.2,17.9,22,1,6.5-.9,12.5-4.9,17.6-2.3,2.9-4.9,5.6-7.4,8.4-22,24.7-37.4,52.8-44.2,85.2-4.3,20.3-5.6,40.9-2.3,61.6,1.7,10.4,3.3,20.9,6.5,30.9,8.9,28,23.1,53,44,74,4.5,4.6,7.8,9.8,8.7,16.2,1.5,10-3.1,20.4-12.2,25.8-9.3,5.5-18.9,5.5-27.6-.8-4.8-3.4-8.8-8-12.8-12.5-29.8-33-48.4-71.7-56.2-115.3-2.5-13.7-3.4-27.7-5.1-41.6.4,0,.7-.1,1-.1Z"/>
      <path class="cls-1" d="m373.2,169.98c-.7,39.2-12.8,71.1-38.1,97.9-8.7,9.2-19.9,12.1-30.4,7.9-17.5-6.9-21.9-29.7-8.2-42.9,8.6-8.3,14.8-18,18.7-29.1,11.9-34.1,5-64.3-19.4-90.6-9-9.7-9.9-24.1-1.7-34.3,8.5-10.6,22.7-13.2,33.9-5.5,5,3.4,9.4,8,13.4,12.6,15.8,18.7,26,40.1,29.9,64.4,1.2,7.3,1.5,14.8,1.9,19.6Z"/>
      <path class="cls-1" d="m159,68.88c9.2,1,17.5,5.4,22.2,14.9,4.6,9.5,3.7,18.8-3.1,27.2-4.6,5.8-9.8,11.3-13.8,17.5-14.5,22.9-16.5,47.5-8,72.9,3.8,11.1,9.8,21.1,18,29.7,3.8,4,7.1,8.3,8.5,13.8,2.9,10.9-1.7,22.3-11.6,28.7-9,5.8-21.8,5.2-30-1.9-9.4-8.1-16.6-18-22.9-28.5-15.5-26.1-21.3-54.6-18.4-84.6,2.4-25.4,11.9-48.3,27.8-68.4,3.7-4.8,7.7-9.4,11.9-13.8,4.8-5.1,11.1-7.2,19.4-7.5Z"/>
      <path class="cls-1" d="m210.2,172.48c-.5-13.1,11-25,24.6-25.2,15.8-.2,26.2,10.8,27.1,24.2,1.1,17.1-13.5,26.6-23.5,27.5-15.5,1.3-28.6-10.9-28.2-26.5Z"/>
    </g>
  </g>
</svg>