<?xml version="1.0" encoding="UTF-8"?>
<svg id="Capa_2" data-name="Capa 2" xmlns="http://www.w3.org/2000/svg" viewBox="0 0 397.83 347.47">
  <defs>
    <style>
      .cls-1 {
        fill: #ff93ee;
      }
    </style>
  </defs>
  <g id="Capa_1-2" data-name="Capa 1">
    <g>
      <path class="cls-1" d="m171.7,197.65c-16.04-10.45-24.3-25.34-23.49-44.49.61-14.59,7.27-26.58,18.73-35.69,19.83-15.76,52.01-13.66,68.81,8.44,18.56,24.41,11.11,57.33-13.81,72.04,2.72.72,4.96,1.37,7.24,1.9,10.14,2.36,19.8,5.85,27.82,12.74,11.41,9.79,18.97,21.95,21.84,36.8.48,2.49,1.23,3.43,3.99,3.41,17.79-.16,35.58-.09,53.37-.11.96,0,1.91-.09,3.06-.15,0-1.82,0-3.48,0-5.15,0-32.26-.02-64.52.06-96.77,0-4.06.09-8.23.96-12.17,1.61-7.28,8.81-12.23,16.09-11.7,7.64.56,13.55,6.35,14.27,14.1.25,2.74.3,5.5.3,8.25.02,33.5.1,67-.12,100.5-.03,4.09.85,6.23,4.61,8.39,13.08,7.52,20.47,19.4,18.41,34.28-3.27,23.62-13.21,43.52-37.81,52.25-5.58,1.98-11.32,2.96-17.24,2.96-90.91-.01-181.81-.01-272.72-.01-3.47,0-6.94-.02-10.41,0-18.9.13-41.53-11.99-49.44-33.9-2.53-7-5.56-13.84-6.11-21.41-1.11-15.16,7.47-29.7,21.41-35.85,1.88-.83,1.84-2.06,1.84-3.59-.02-21.33-.07-42.65-.01-63.98.06-21.86.14-43.72.4-65.58.14-11.91.71-23.85,3.94-35.38,6.47-23.06,21.46-37.53,45.11-41.93,10.52-1.96,21.35-2.92,32.06-3.08,30.33-.44,60.66-.28,90.99-.27,8.12,0,14.64,5.61,15.75,13.19,1.16,7.88-3.29,15.23-10.84,17.33-2.52.7-5.27.75-7.91.78-31.57.28-63.14.42-94.71.79-5.85.07-11.71.77-17.51,1.57-13.94,1.94-22.14,10.53-23.73,25.32-1.01,9.43-1.69,18.95-1.74,28.43-.2,40.17-.1,80.33-.15,120.5,0,1.62.23,2.37,2.15,2.36,18.32-.09,36.65-.09,54.97-.06,1.89,0,2.63-.4,3.07-2.51,5.55-26.58,21.47-43.3,47.93-49.87,2.75-.68,5.51-1.34,8.25-2.04.11-.03.16-.29.35-.65Zm25.18,86.93c-53.28,0-106.56,0-159.83,0-4.39,0-6.54,2.7-5.29,6.93,1.05,3.57,2.19,7.13,3.64,10.55,2.88,6.76,7.9,11.41,15.1,13.13,3.33.79,6.88.87,10.33.87,56.92.06,113.85.07,170.77.06,34.95,0,69.91-.03,104.86-.12,2.55,0,5.17-.27,7.65-.88,12.54-3.1,16.78-14.29,18.55-25.92.35-2.28-1.43-3.97-3.82-4.41-1.3-.24-2.66-.2-3.99-.2-52.65,0-105.31,0-157.96,0Zm50.4-32.01c-.11-.63-.12-1.07-.26-1.46-3.43-9.59-10.06-16.12-19.66-19.2-18-5.77-36.27-6.26-54.69-1.9-7.08,1.67-13.49,4.48-18.52,9.85-3.36,3.58-5.82,7.73-7.27,12.72h100.4Zm-49.93-114.04c-9.62-.02-17.56,7.33-17.61,16.31-.06,10.55,7.49,18.51,17.54,18.51,9.42,0,17.32-7.9,17.31-17.32,0-9.38-7.98-17.48-17.24-17.5Z"/>
      <path class="cls-1" d="m294.22.39c8.45,0,16.9.1,25.35-.02,10.7-.15,19.46,3.49,25.6,12.53.79,1.16,1.52,1.35,2.85.79,5.07-2.14,10.11-4.39,15.31-6.15,16.04-5.4,34.28,7.56,34.47,24.49.08,6.66-.53,13.32-.51,19.97.04,9.95.49,19.89.53,29.84.09,20.43-20.09,33.6-38.92,25.51-3.18-1.37-6.47-2.51-9.56-4.05-2.31-1.15-3.61-.79-5.19,1.33-4.09,5.5-9.38,9.47-16.34,10.64-2.71.45-5.48.77-8.22.78-17.79.07-35.58.22-53.37-.07-5.72-.09-11.65-.66-17.08-2.33-13.09-4.02-19.79-13.77-20.97-27.04-1.68-18.97-1.58-37.99-.01-56.97,1.32-15.97,11.62-26.66,27.68-28.09,12.73-1.14,25.56-1.07,38.35-1.54,0,.13.01.26.02.39Zm23.96,84.17c-3.4-17.78-3.24-35.1.04-52.58-1.15-.07-1.93-.16-2.71-.16-14.05.02-28.1.03-42.15.08-3.64.01-7.29.19-10.93.17-2.58,0-3.44,1.01-3.42,3.68.13,14.74.05,29.49.06,44.24,0,3.82.05,3.85,3.96,4.25,1.15.12,2.3.24,3.46.24,15.38.04,30.76.06,46.15.08,1.74,0,3.49,0,5.54,0Zm47.57-8.22v-36.17c-5.77,2.26-11.29,4.37-16.76,6.62-.65.27-1.4,1.25-1.41,1.92-.13,6.19-.14,12.39-.06,18.58,0,.71.65,1.78,1.28,2.04,5.51,2.37,11.09,4.6,16.96,7Z"/>
    </g>
  </g>
</svg>