<?xml version="1.0" encoding="UTF-8"?>
<svg id="Capa_2" data-name="Capa 2" xmlns="http://www.w3.org/2000/svg" viewBox="0 0 461.84 118.25">
  <defs>
    <style>
      .cls-1 {
        fill: #ff5644;
      }

      .cls-1, .cls-2 {
        fill-rule: evenodd;
      }

      .cls-2 {
        fill: #00a88c;
      }

      .cls-3 {
        fill: #373737;
      }

      .cls-4 {
        fill: #452189;
      }
    </style>
  </defs>
  <g id="Capa_1-2" data-name="Capa 1">
    <g>
      <g>
        <path class="cls-3" d="m193.95,87.99h20.25c2.66,0,4.77-.62,6.34-1.86,1.56-1.24,2.35-2.95,2.35-5.15s-.78-3.9-2.35-5.11c-1.57-1.21-3.68-1.82-6.34-1.82h-22l5.39-6.1v49.25h-11.91v-52.54h29.91c3.83,0,7.19.69,10.09,2.07,2.9,1.38,5.16,3.28,6.8,5.71,1.63,2.43,2.45,5.28,2.45,8.55s-.82,6.05-2.45,8.48c-1.64,2.43-3.9,4.33-6.8,5.71-2.9,1.38-6.26,2.07-10.09,2.07h-21.65v-9.25Zm9.11,4.62h13.59l19.82,24.59h-13.94l-19.48-24.59Z"/>
        <path class="cls-3" d="m263.87,118.25c-4.95,0-9.29-.88-13.03-2.63-3.74-1.75-6.66-4.2-8.76-7.36-2.1-3.15-3.15-6.81-3.15-10.96s1.05-7.88,3.15-11.03c2.1-3.15,5.02-5.61,8.76-7.36,3.74-1.75,8.08-2.63,13.03-2.63s9.29.88,13.03,2.63,6.64,4.2,8.72,7.36c2.08,3.15,3.12,6.83,3.12,11.03s-1.04,7.81-3.12,10.96c-2.08,3.15-4.99,5.6-8.72,7.36-3.74,1.75-8.08,2.63-13.03,2.63Zm0-8.9c2.71,0,5.03-.49,6.97-1.47,1.94-.98,3.43-2.37,4.48-4.17,1.05-1.8,1.58-3.93,1.58-6.41s-.52-4.68-1.58-6.48c-1.05-1.8-2.55-3.19-4.48-4.17-1.94-.98-4.26-1.47-6.97-1.47s-4.97.49-6.94,1.47-3.47,2.37-4.52,4.17c-1.05,1.8-1.58,3.96-1.58,6.48s.52,4.61,1.58,6.41c1.05,1.8,2.56,3.19,4.52,4.17,1.96.98,4.27,1.47,6.94,1.47Z"/>
        <path class="cls-3" d="m317.18,111.8l-4.2-.07,15.06-34.4h12.47l-19.06,39.86h-13.24l-18.98-39.86h12.89l15.06,34.47Z"/>
        <path class="cls-3" d="m365.52,118.25c-4.72,0-8.93-.88-12.64-2.63-3.71-1.75-6.63-4.21-8.76-7.39-2.13-3.18-3.19-6.86-3.19-11.07s1.02-7.8,3.05-10.93c2.03-3.13,4.82-5.57,8.37-7.32,3.55-1.75,7.59-2.63,12.12-2.63s8.59,1.02,11.91,3.05c3.32,2.03,5.87,4.89,7.67,8.58,1.8,3.69,2.7,8.03,2.7,13.03h-36.43v-7.78h30.12l-4.55,2.8c-.19-2.33-.76-4.32-1.72-5.96-.96-1.63-2.25-2.9-3.89-3.78-1.63-.89-3.55-1.33-5.74-1.33-2.38,0-4.45.48-6.2,1.44-1.75.96-3.11,2.29-4.06,3.99-.96,1.71-1.44,3.7-1.44,5.99,0,2.76.61,5.11,1.82,7.08,1.21,1.96,2.99,3.46,5.32,4.48,2.33,1.03,5.16,1.54,8.48,1.54,2.99,0,6-.43,9.04-1.3,3.04-.86,5.77-2.09,8.2-3.68v7.85c-2.62,1.87-5.66,3.33-9.14,4.38-3.48,1.05-7.16,1.58-11.03,1.58Z"/>
        <path class="cls-3" d="m393.61,64.78h11.7v52.42h-11.7v-52.42Z"/>
        <path class="cls-3" d="m436.97,118.25c-4.95,0-9.29-.88-13.03-2.63-3.74-1.75-6.66-4.2-8.76-7.36-2.1-3.15-3.15-6.81-3.15-10.96s1.05-7.88,3.15-11.03c2.1-3.15,5.02-5.61,8.76-7.36,3.74-1.75,8.08-2.63,13.03-2.63s9.29.88,13.03,2.63,6.64,4.2,8.72,7.36c2.08,3.15,3.12,6.83,3.12,11.03s-1.04,7.81-3.12,10.96c-2.08,3.15-4.99,5.6-8.72,7.36-3.74,1.75-8.08,2.63-13.03,2.63Zm0-8.9c2.71,0,5.03-.49,6.97-1.47,1.94-.98,3.43-2.37,4.48-4.17,1.05-1.8,1.58-3.93,1.58-6.41s-.52-4.68-1.58-6.48c-1.05-1.8-2.55-3.19-4.48-4.17-1.94-.98-4.26-1.47-6.97-1.47s-4.97.49-6.94,1.47c-1.96.98-3.47,2.37-4.52,4.17-1.05,1.8-1.58,3.96-1.58,6.48s.52,4.61,1.58,6.41c1.05,1.8,2.56,3.19,4.52,4.17s4.27,1.47,6.94,1.47Z"/>
      </g>
      <g>
        <path class="cls-1" d="m139.26,117.21c-24.88-2.83-50.06-22.26-53.25-47.45h53.25v47.45Z"/>
        <path class="cls-2" d="m86.01,47.56V0h29.47C128.59,0,139.26,10.67,139.26,23.78s-10.67,23.78-23.78,23.78h-29.47Z"/>
        <path class="cls-4" d="m52.7,69.76c-6.13,0-11.1-4.97-11.1-11.1s4.97-11.1,11.1-11.1h11.1V0h-11.1C23.12,3.13,0,28.23,0,58.62s23.12,55.49,52.7,58.62h11.1v-47.53h-10.57c-.18,0-.35.05-.53.05Z"/>
      </g>
      <g>
        <polygon class="cls-3" points="276.39 0 269.52 9.97 280.52 9.97 287.77 0 276.39 0"/>
        <path class="cls-3" d="m245.09,32.52c-.51,4.44-2.07,8.35-4.66,11.73-2.59,3.39-6,6.01-10.23,7.88-4.23,1.87-9.05,2.8-14.47,2.8-5.98,0-11.22-1.14-15.73-3.43-4.51-2.29-8.02-5.48-10.54-9.56-2.52-4.09-3.78-8.86-3.78-14.33s1.26-10.24,3.78-14.33c2.52-4.09,6.04-7.27,10.54-9.56,4.51-2.29,9.75-3.43,15.73-3.43,5.42,0,10.24.93,14.47,2.8,4.23,1.87,7.64,4.48,10.23,7.85,2.59,3.36,4.14,7.29,4.66,11.77h-11.98c-.47-2.48-1.47-4.61-3.01-6.41-1.54-1.8-3.53-3.19-5.96-4.17-2.43-.98-5.25-1.47-8.48-1.47-3.69,0-6.88.69-9.56,2.07-2.69,1.38-4.75,3.34-6.2,5.88-1.45,2.55-2.17,5.55-2.17,9s.72,6.46,2.17,9c1.45,2.55,3.51,4.51,6.2,5.88,2.69,1.38,5.87,2.07,9.56,2.07,3.22,0,6.05-.48,8.48-1.44,2.43-.96,4.41-2.33,5.96-4.13,1.54-1.8,2.55-3.96,3.01-6.48h11.98Z"/>
        <path class="cls-3" d="m277.3,54.94c-4.72,0-8.93-.88-12.64-2.63-3.71-1.75-6.63-4.21-8.76-7.39-2.13-3.18-3.19-6.86-3.19-11.07s1.02-7.8,3.05-10.93c2.03-3.13,4.82-5.57,8.37-7.32,3.55-1.75,7.59-2.63,12.12-2.63s8.59,1.02,11.91,3.05c3.32,2.03,5.87,4.89,7.67,8.58,1.8,3.69,2.7,8.03,2.7,13.03h-36.43v-7.78h30.12l-4.55,2.8c-.19-2.33-.76-4.32-1.72-5.96-.96-1.63-2.25-2.9-3.89-3.78-1.64-.89-3.55-1.33-5.74-1.33-2.38,0-4.45.48-6.2,1.44-1.75.96-3.11,2.29-4.06,3.99-.96,1.71-1.44,3.7-1.44,5.99,0,2.76.61,5.11,1.82,7.08,1.21,1.96,2.99,3.46,5.32,4.48,2.33,1.03,5.16,1.54,8.48,1.54,2.99,0,6-.43,9.04-1.3,3.03-.86,5.77-2.09,8.2-3.68v7.85c-2.62,1.87-5.66,3.33-9.14,4.38-3.48,1.05-7.16,1.58-11.03,1.58Z"/>
        <path class="cls-3" d="m355.03,41.35c0,2.85-.83,5.3-2.49,7.36-1.66,2.05-4.12,3.61-7.39,4.66-3.27,1.05-11.26,1.58-15.98,1.58s-9.08-.6-12.68-1.79c-3.6-1.19-6.4-2.88-8.41-5.08-2.01-2.2-3.08-4.74-3.22-7.64h11.91c.28,1.31.98,2.44,2.1,3.4,1.12.96,2.58,1.69,4.38,2.21,1.8.51,3.89.77,6.27.77,3.32,0,9.83-.37,11.53-1.12,1.7-.75,2.56-1.87,2.56-3.36,0-1.07-.6-1.89-1.79-2.45-1.19-.56-3.37-.98-6.55-1.26l-11.43-.56c-4.44-.37-7.96-1.12-10.58-2.24-2.62-1.12-4.47-2.53-5.57-4.24-1.1-1.7-1.65-3.58-1.65-5.64,0-2.85.89-5.23,2.66-7.15,1.78-1.91,4.26-3.36,7.46-4.34,3.2-.98,6.9-1.47,11.1-1.47s12.13.58,15.49,1.75c3.36,1.17,6.06,2.78,8.09,4.83,2.03,2.06,3.19,4.44,3.47,7.15h-11.91c-.19-.98-.71-1.9-1.58-2.77-.86-.86-2.11-1.58-3.75-2.14-1.64-.56-7.76-.84-10.38-.84-2.94,0-5.21.34-6.8,1.02-1.59.68-2.38,1.69-2.38,3.05,0,.93.49,1.69,1.47,2.28s2.8.99,5.46,1.23l13.67.77c4.3.37,7.68,1.09,10.16,2.14,2.48,1.05,4.21,2.42,5.22,4.1,1,1.68,1.51,3.62,1.51,5.81Z"/>
        <path class="cls-3" d="m403.34,33.99c-.75,4.2-2.11,7.88-4.1,11.03-1.99,3.15-4.48,5.59-7.5,7.32-3.01,1.73-6.39,2.59-10.12,2.59s-7.31-.88-10.3-2.63c-2.99-1.75-5.31-4.2-6.97-7.36-1.66-3.15-2.49-6.81-2.49-10.96s.83-7.88,2.49-11.03c1.66-3.15,3.98-5.61,6.97-7.36,2.99-1.75,6.42-2.63,10.3-2.63s7.11.86,10.12,2.59c3.01,1.73,5.52,4.17,7.53,7.32,2.01,3.15,3.36,6.85,4.06,11.1Zm-29.63,0c0,2.34.48,4.39,1.44,6.16.96,1.78,2.28,3.16,3.96,4.17,1.68,1,3.62,1.51,5.81,1.51s4.26-.5,6.2-1.51c1.94-1,3.65-2.39,5.15-4.17,1.49-1.77,2.66-3.83,3.5-6.16-.84-2.33-2.01-4.4-3.5-6.2-1.5-1.8-3.21-3.2-5.15-4.2-1.94-1-4.01-1.51-6.2-1.51s-4.13.5-5.81,1.51c-1.68,1-3,2.41-3.96,4.2-.96,1.8-1.44,3.86-1.44,6.2Zm26.55,19.9l-1.68-14.57,1.89-5.32-1.89-5.25,1.68-14.71h12.12l-2.31,19.97,2.31,19.9h-12.12Z"/>
        <path class="cls-3" d="m421.33,14.03h11.84l2.38,14.36v25.5h-11.7v-26.76l-2.52-13.1Zm39.63-.42v10.09c-1.22-.28-2.43-.49-3.64-.63-1.22-.14-2.36-.21-3.43-.21-2.34,0-10.44.49-12.31,1.47-1.87.98-3.34,2.5-4.41,4.55-1.08,2.06-1.61,4.65-1.61,7.78l-2.45-2.94c.28-2.85.79-5.52,1.54-8.02.75-2.5,1.79-4.69,3.12-6.58,1.33-1.89,2.98-3.39,4.94-4.48,1.96-1.1,10.3-1.65,13.01-1.65.89,0,1.79.06,2.7.17.91.12,1.76.27,2.56.46Z"/>
      </g>
    </g>
  </g>
</svg>